<?xml version="1.0" encoding="UTF-8" standalone="no" ?>
<!DOCTYPE svg PUBLIC "-//W3C//DTD SVG 1.1//EN" "http://www.w3.org/Graphics/SVG/1.1/DTD/svg11.dtd">
<svg xmlns="http://www.w3.org/2000/svg" xmlns:xlink="http://www.w3.org/1999/xlink" version="1.1" width="350" height="350" viewBox="0 0 350 350" xml:space="preserve">
<desc>Created with Fabric.js 1.7.22</desc>
<defs>
</defs>
<g id="icon" style="stroke: none; stroke-width: 1; stroke-dasharray: none; stroke-linecap: butt; stroke-linejoin: miter; stroke-miterlimit: 10; fill: none; fill-rule: nonzero; opacity: 1;" transform="translate(-1.9444444444444287 -1.9444444444444287) scale(3.89 3.89)" >
	<path d="M 33.401 89.585 c -0.4 0 -0.803 -0.057 -1.196 -0.172 c -1.325 -0.389 -2.382 -1.401 -2.829 -2.708 l -3.114 -9.121 c -0.34 -0.997 -1.315 -1.628 -2.359 -1.516 l -9.59 0.956 c -1.372 0.131 -2.733 -0.403 -3.637 -1.447 C 9.77 74.534 9.428 73.11 9.759 71.77 l 2.311 -9.357 c 0.252 -1.022 -0.227 -2.071 -1.165 -2.55 l -8.585 -4.381 c -1.23 -0.628 -2.082 -1.818 -2.278 -3.185 c -0.197 -1.367 0.285 -2.749 1.288 -3.698 l 7.003 -6.621 c 0.765 -0.724 0.929 -1.865 0.399 -2.775 L 3.88 30.877 c -0.696 -1.192 -0.768 -2.655 -0.194 -3.911 c 0.573 -1.256 1.726 -2.159 3.083 -2.414 l 9.471 -1.785 c 1.035 -0.195 1.79 -1.066 1.836 -2.119 l 0.418 -9.629 c 0.06 -1.379 0.789 -2.649 1.951 -3.395 c 1.161 -0.747 2.62 -0.882 3.899 -0.364 l 8.932 3.619 c 0.977 0.396 2.083 0.071 2.69 -0.79 l 5.558 -7.874 c 0.796 -1.128 2.095 -1.801 3.476 -1.801 c 0 0 0 0 0.001 0 c 1.381 0 2.681 0.673 3.477 1.801 l 0.001 0 l 5.558 7.874 c 0.606 0.86 1.714 1.188 2.689 0.79 l 8.933 -3.619 c 1.279 -0.519 2.737 -0.383 3.898 0.364 c 1.162 0.747 1.892 2.016 1.951 3.396 l 0.419 9.629 c 0.046 1.052 0.801 1.924 1.836 2.119 l 9.471 1.785 c 1.356 0.255 2.509 1.158 3.083 2.414 c 0.573 1.256 0.501 2.718 -0.194 3.911 l -4.854 8.326 c -0.53 0.91 -0.366 2.052 0.398 2.775 l 7.003 6.621 c 1.003 0.949 1.485 2.331 1.288 3.698 c -0.196 1.366 -1.048 2.557 -2.278 3.185 l -8.584 4.381 c -0.938 0.479 -1.417 1.527 -1.165 2.551 l 2.312 9.355 c 0.331 1.342 -0.012 2.766 -0.916 3.809 c -0.904 1.044 -2.262 1.581 -3.638 1.447 l -9.59 -0.956 c -1.046 -0.11 -2.017 0.52 -2.358 1.516 l -3.114 9.121 c -0.446 1.307 -1.504 2.319 -2.829 2.708 c -1.324 0.388 -2.762 0.107 -3.843 -0.75 l -7.55 -5.988 c -0.826 -0.654 -1.979 -0.654 -2.804 0 l -7.551 5.988 C 35.287 89.267 34.35 89.585 33.401 89.585 z" style="stroke: none; stroke-width: 1; stroke-dasharray: none; stroke-linecap: butt; stroke-linejoin: miter; stroke-miterlimit: 10; fill: rgb(255,169,65); fill-rule: nonzero; opacity: 1;" transform=" matrix(1 0 0 1 0 0) " stroke-linecap="round" />
	<path d="M 45 71.001 c -14.337 0 -26 -11.663 -26 -26 c 0 -14.337 11.664 -26 26 -26 c 14.337 0 26 11.664 26 26 C 71 59.338 59.337 71.001 45 71.001 z" style="stroke: none; stroke-width: 1; stroke-dasharray: none; stroke-linecap: butt; stroke-linejoin: miter; stroke-miterlimit: 10; fill: rgb(255,222,85); fill-rule: nonzero; opacity: 1;" transform=" matrix(1 0 0 1 0 0) " stroke-linecap="round" />
	<path d="M 27.5 46.001 c -0.552 0 -1 -0.448 -1 -1 c 0 -10.201 8.299 -18.5 18.5 -18.5 c 0.552 0 1 0.448 1 1 c 0 0.552 -0.448 1 -1 1 c -9.098 0 -16.5 7.402 -16.5 16.5 C 28.5 45.553 28.052 46.001 27.5 46.001 z" style="stroke: none; stroke-width: 1; stroke-dasharray: none; stroke-linecap: butt; stroke-linejoin: miter; stroke-miterlimit: 10; fill: rgb(255,169,65); fill-rule: nonzero; opacity: 1;" transform=" matrix(1 0 0 1 0 0) " stroke-linecap="round" />
	<path d="M 52.757 61.692 c -0.368 0 -0.723 -0.204 -0.897 -0.557 c -0.245 -0.495 -0.042 -1.095 0.453 -1.34 c 3.074 -1.522 5.565 -3.922 7.202 -6.941 c 0.263 -0.485 0.87 -0.665 1.355 -0.402 c 0.485 0.264 0.666 0.87 0.402 1.355 c -1.835 3.384 -4.627 6.074 -8.073 7.78 C 53.057 61.659 52.905 61.692 52.757 61.692 z" style="stroke: none; stroke-width: 1; stroke-dasharray: none; stroke-linecap: butt; stroke-linejoin: miter; stroke-miterlimit: 10; fill: rgb(255,169,65); fill-rule: nonzero; opacity: 1;" transform=" matrix(1 0 0 1 0 0) " stroke-linecap="round" />
</g>
</svg>